<svg width="170" height="185" viewBox="0 0 170 185" fill="none" xmlns="http://www.w3.org/2000/svg">
<g filter="url(#filter0_f_5_101)">
<path d="M52.0049 102.191L52.8808 93.3434C52.8871 93.2796 52.8995 93.2167 52.9179 93.1553L55.9262 83.0975C55.9412 83.0474 55.9601 82.9985 55.9827 82.9514L61.1373 72.2109L66.3258 61.3996L71.3595 52.5078C71.6183 52.0506 72.1868 51.8717 72.6608 52.0982L79.733 55.477L92.2896 63.641L104.781 71.7625C104.824 71.7908 104.866 71.8225 104.904 71.8572L110.827 77.1824C110.898 77.247 110.96 77.3216 111.011 77.404L115.543 84.8084C115.592 84.8884 115.629 84.9748 115.654 85.0652L117.787 92.8196C117.813 92.913 117.825 93.0095 117.823 93.1063L117.649 101.207C117.643 101.49 117.517 101.757 117.303 101.942L106.839 110.997C106.644 111.165 106.391 111.252 106.133 111.239L95.1354 110.676C94.4546 110.641 93.9393 111.283 94.1201 111.94L95.4957 116.941C95.5514 117.143 95.6694 117.323 95.833 117.454L105.094 124.907C105.73 125.419 105.519 126.434 104.733 126.651L102.356 127.304L88.511 131.113L84.1865 132.303C83.4763 132.498 82.8058 131.885 82.9374 131.16L83.7921 126.453L85.4271 120.175C85.4512 120.083 85.4619 119.987 85.4588 119.891L85.304 115.142C85.2761 114.285 84.253 113.858 83.6244 114.441L79.0232 118.711C78.9054 118.82 78.7631 118.9 78.6082 118.942L69.5843 121.425C69.373 121.483 69.1485 121.47 68.9452 121.388L59.8862 117.736C59.6965 117.66 59.5347 117.527 59.4228 117.356L55.6903 111.641C55.6543 111.586 55.6238 111.527 55.5993 111.466L52.0718 102.662C52.012 102.513 51.9891 102.351 52.0049 102.191Z" fill="#007184" fill-opacity="0.16"/>
<path d="M52.0049 102.191L52.8808 93.3434C52.8871 93.2796 52.8995 93.2167 52.9179 93.1553L55.9262 83.0975C55.9412 83.0474 55.9601 82.9985 55.9827 82.9514L61.1373 72.2109L66.3258 61.3996L71.3595 52.5078C71.6183 52.0506 72.1868 51.8717 72.6608 52.0982L79.733 55.477L92.2896 63.641L104.781 71.7625C104.824 71.7908 104.866 71.8225 104.904 71.8572L110.827 77.1824C110.898 77.247 110.96 77.3216 111.011 77.404L115.543 84.8084C115.592 84.8884 115.629 84.9748 115.654 85.0652L117.787 92.8196C117.813 92.913 117.825 93.0095 117.823 93.1063L117.649 101.207C117.643 101.49 117.517 101.757 117.303 101.942L106.839 110.997C106.644 111.165 106.391 111.252 106.133 111.239L95.1354 110.676C94.4546 110.641 93.9393 111.283 94.1201 111.94L95.4957 116.941C95.5514 117.143 95.6694 117.323 95.833 117.454L105.094 124.907C105.73 125.419 105.519 126.434 104.733 126.651L102.356 127.304L88.511 131.113L84.1865 132.303C83.4763 132.498 82.8058 131.885 82.9374 131.16L83.7921 126.453L85.4271 120.175C85.4512 120.083 85.4619 119.987 85.4588 119.891L85.304 115.142C85.2761 114.285 84.253 113.858 83.6244 114.441L79.0232 118.711C78.9054 118.82 78.7631 118.9 78.6082 118.942L69.5843 121.425C69.373 121.483 69.1485 121.47 68.9452 121.388L59.8862 117.736C59.6965 117.66 59.5347 117.527 59.4228 117.356L55.6903 111.641C55.6543 111.586 55.6238 111.527 55.5993 111.466L52.0718 102.662C52.012 102.513 51.9891 102.351 52.0049 102.191Z" stroke="#85D7E5" stroke-width="4" stroke-linejoin="bevel"/>
</g>
<g filter="url(#filter1_f_5_101)">
<path d="M52.0049 102.191L52.8808 93.3434C52.8871 93.2796 52.8995 93.2167 52.9179 93.1553L55.9262 83.0975C55.9412 83.0474 55.9601 82.9985 55.9827 82.9514L61.1373 72.2109L66.3258 61.3996L71.3595 52.5078C71.6183 52.0506 72.1868 51.8717 72.6608 52.0982L79.733 55.477L92.2896 63.641L104.781 71.7625C104.824 71.7908 104.866 71.8225 104.904 71.8572L110.827 77.1824C110.898 77.247 110.96 77.3216 111.011 77.404L115.543 84.8084C115.592 84.8884 115.629 84.9748 115.654 85.0652L117.787 92.8196C117.813 92.913 117.825 93.0095 117.823 93.1063L117.649 101.207C117.643 101.49 117.517 101.757 117.303 101.942L106.839 110.997C106.644 111.165 106.391 111.252 106.133 111.239L95.1354 110.676C94.4546 110.641 93.9393 111.283 94.1201 111.94L95.4957 116.941C95.5514 117.143 95.6694 117.323 95.833 117.454L105.094 124.907C105.73 125.419 105.519 126.434 104.733 126.651L102.356 127.304L88.511 131.113L84.1865 132.303C83.4763 132.498 82.8058 131.885 82.9374 131.16L83.7921 126.453L85.4271 120.175C85.4512 120.083 85.4619 119.987 85.4588 119.891L85.304 115.142C85.2761 114.285 84.253 113.858 83.6244 114.441L79.0232 118.711C78.9054 118.82 78.7631 118.9 78.6082 118.942L69.5843 121.425C69.373 121.483 69.1485 121.47 68.9452 121.388L59.8862 117.736C59.6965 117.66 59.5347 117.527 59.4228 117.356L55.6903 111.641C55.6543 111.586 55.6238 111.527 55.5993 111.466L52.0718 102.662C52.012 102.513 51.9891 102.351 52.0049 102.191Z" fill="#007184" fill-opacity="0.16"/>
<path d="M52.0049 102.191L52.8808 93.3434C52.8871 93.2796 52.8995 93.2167 52.9179 93.1553L55.9262 83.0975C55.9412 83.0474 55.9601 82.9985 55.9827 82.9514L61.1373 72.2109L66.3258 61.3996L71.3595 52.5078C71.6183 52.0506 72.1868 51.8717 72.6608 52.0982L79.733 55.477L92.2896 63.641L104.781 71.7625C104.824 71.7908 104.866 71.8225 104.904 71.8572L110.827 77.1824C110.898 77.247 110.96 77.3216 111.011 77.404L115.543 84.8084C115.592 84.8884 115.629 84.9748 115.654 85.0652L117.787 92.8196C117.813 92.913 117.825 93.0095 117.823 93.1063L117.649 101.207C117.643 101.49 117.517 101.757 117.303 101.942L106.839 110.997C106.644 111.165 106.391 111.252 106.133 111.239L95.1354 110.676C94.4546 110.641 93.9393 111.283 94.1201 111.94L95.4957 116.941C95.5514 117.143 95.6694 117.323 95.833 117.454L105.094 124.907C105.73 125.419 105.519 126.434 104.733 126.651L102.356 127.304L88.511 131.113L84.1865 132.303C83.4763 132.498 82.8058 131.885 82.9374 131.16L83.7921 126.453L85.4271 120.175C85.4512 120.083 85.4619 119.987 85.4588 119.891L85.304 115.142C85.2761 114.285 84.253 113.858 83.6244 114.441L79.0232 118.711C78.9054 118.82 78.7631 118.9 78.6082 118.942L69.5843 121.425C69.373 121.483 69.1485 121.47 68.9452 121.388L59.8862 117.736C59.6965 117.66 59.5347 117.527 59.4228 117.356L55.6903 111.641C55.6543 111.586 55.6238 111.527 55.5993 111.466L52.0718 102.662C52.012 102.513 51.9891 102.351 52.0049 102.191Z" stroke="#85D7E5" stroke-width="4" stroke-linejoin="bevel"/>
</g>
<g filter="url(#filter2_f_5_101)">
<path d="M52.0049 102.191L52.8808 93.3434C52.8871 93.2796 52.8995 93.2167 52.9179 93.1553L55.9262 83.0975C55.9412 83.0474 55.9601 82.9985 55.9827 82.9514L61.1373 72.2109L66.3258 61.3996L71.3595 52.5078C71.6183 52.0506 72.1868 51.8717 72.6608 52.0982L79.733 55.477L92.2896 63.641L104.781 71.7625C104.824 71.7908 104.866 71.8225 104.904 71.8572L110.827 77.1824C110.898 77.247 110.96 77.3216 111.011 77.404L115.543 84.8084C115.592 84.8884 115.629 84.9748 115.654 85.0652L117.787 92.8196C117.813 92.913 117.825 93.0095 117.823 93.1063L117.649 101.207C117.643 101.49 117.517 101.757 117.303 101.942L106.839 110.997C106.644 111.165 106.391 111.252 106.133 111.239L95.1354 110.676C94.4546 110.641 93.9393 111.283 94.1201 111.94L95.4957 116.941C95.5514 117.143 95.6694 117.323 95.833 117.454L105.094 124.907C105.73 125.419 105.519 126.434 104.733 126.651L102.356 127.304L88.511 131.113L84.1865 132.303C83.4763 132.498 82.8058 131.885 82.9374 131.16L83.7921 126.453L85.4271 120.175C85.4512 120.083 85.4619 119.987 85.4588 119.891L85.304 115.142C85.2761 114.285 84.253 113.858 83.6244 114.441L79.0232 118.711C78.9054 118.82 78.7631 118.9 78.6082 118.942L69.5843 121.425C69.373 121.483 69.1485 121.47 68.9452 121.388L59.8862 117.736C59.6965 117.66 59.5347 117.527 59.4228 117.356L55.6903 111.641C55.6543 111.586 55.6238 111.527 55.5993 111.466L52.0718 102.662C52.012 102.513 51.9891 102.351 52.0049 102.191Z" fill="#007184" fill-opacity="0.16"/>
<path d="M52.0049 102.191L52.8808 93.3434C52.8871 93.2796 52.8995 93.2167 52.9179 93.1553L55.9262 83.0975C55.9412 83.0474 55.9601 82.9985 55.9827 82.9514L61.1373 72.2109L66.3258 61.3996L71.3595 52.5078C71.6183 52.0506 72.1868 51.8717 72.6608 52.0982L79.733 55.477L92.2896 63.641L104.781 71.7625C104.824 71.7908 104.866 71.8225 104.904 71.8572L110.827 77.1824C110.898 77.247 110.96 77.3216 111.011 77.404L115.543 84.8084C115.592 84.8884 115.629 84.9748 115.654 85.0652L117.787 92.8196C117.813 92.913 117.825 93.0095 117.823 93.1063L117.649 101.207C117.643 101.49 117.517 101.757 117.303 101.942L106.839 110.997C106.644 111.165 106.391 111.252 106.133 111.239L95.1354 110.676C94.4546 110.641 93.9393 111.283 94.1201 111.94L95.4957 116.941C95.5514 117.143 95.6694 117.323 95.833 117.454L105.094 124.907C105.73 125.419 105.519 126.434 104.733 126.651L102.356 127.304L88.511 131.113L84.1865 132.303C83.4763 132.498 82.8058 131.885 82.9374 131.16L83.7921 126.453L85.4271 120.175C85.4512 120.083 85.4619 119.987 85.4588 119.891L85.304 115.142C85.2761 114.285 84.253 113.858 83.6244 114.441L79.0232 118.711C78.9054 118.82 78.7631 118.9 78.6082 118.942L69.5843 121.425C69.373 121.483 69.1485 121.47 68.9452 121.388L59.8862 117.736C59.6965 117.66 59.5347 117.527 59.4228 117.356L55.6903 111.641C55.6543 111.586 55.6238 111.527 55.5993 111.466L52.0718 102.662C52.012 102.513 51.9891 102.351 52.0049 102.191Z" stroke="#85D7E5" stroke-width="4" stroke-linejoin="bevel"/>
</g>
<g filter="url(#filter3_f_5_101)">
<path d="M52.0049 102.191L52.8808 93.3434C52.8871 93.2796 52.8995 93.2167 52.9179 93.1553L55.9262 83.0975C55.9412 83.0474 55.9601 82.9985 55.9827 82.9514L61.1373 72.2109L66.3258 61.3996L71.3595 52.5078C71.6183 52.0506 72.1868 51.8717 72.6608 52.0982L79.733 55.477L92.2896 63.641L104.781 71.7625C104.824 71.7908 104.866 71.8225 104.904 71.8572L110.827 77.1824C110.898 77.247 110.96 77.3216 111.011 77.404L115.543 84.8084C115.592 84.8884 115.629 84.9748 115.654 85.0652L117.787 92.8196C117.813 92.913 117.825 93.0095 117.823 93.1063L117.649 101.207C117.643 101.49 117.517 101.757 117.303 101.942L106.839 110.997C106.644 111.165 106.391 111.252 106.133 111.239L95.1354 110.676C94.4546 110.641 93.9393 111.283 94.1201 111.94L95.4957 116.941C95.5514 117.143 95.6694 117.323 95.833 117.454L105.094 124.907C105.73 125.419 105.519 126.434 104.733 126.651L102.356 127.304L88.511 131.113L84.1865 132.303C83.4763 132.498 82.8058 131.885 82.9374 131.16L83.7921 126.453L85.4271 120.175C85.4512 120.083 85.4619 119.987 85.4588 119.891L85.304 115.142C85.2761 114.285 84.253 113.858 83.6244 114.441L79.0232 118.711C78.9054 118.82 78.7631 118.9 78.6082 118.942L69.5843 121.425C69.373 121.483 69.1485 121.47 68.9452 121.388L59.8862 117.736C59.6965 117.66 59.5347 117.527 59.4228 117.356L55.6903 111.641C55.6543 111.586 55.6238 111.527 55.5993 111.466L52.0718 102.662C52.012 102.513 51.9891 102.351 52.0049 102.191Z" fill="#007184" fill-opacity="0.16"/>
<path d="M52.0049 102.191L52.8808 93.3434C52.8871 93.2796 52.8995 93.2167 52.9179 93.1553L55.9262 83.0975C55.9412 83.0474 55.9601 82.9985 55.9827 82.9514L61.1373 72.2109L66.3258 61.3996L71.3595 52.5078C71.6183 52.0506 72.1868 51.8717 72.6608 52.0982L79.733 55.477L92.2896 63.641L104.781 71.7625C104.824 71.7908 104.866 71.8225 104.904 71.8572L110.827 77.1824C110.898 77.247 110.96 77.3216 111.011 77.404L115.543 84.8084C115.592 84.8884 115.629 84.9748 115.654 85.0652L117.787 92.8196C117.813 92.913 117.825 93.0095 117.823 93.1063L117.649 101.207C117.643 101.49 117.517 101.757 117.303 101.942L106.839 110.997C106.644 111.165 106.391 111.252 106.133 111.239L95.1354 110.676C94.4546 110.641 93.9393 111.283 94.1201 111.94L95.4957 116.941C95.5514 117.143 95.6694 117.323 95.833 117.454L105.094 124.907C105.73 125.419 105.519 126.434 104.733 126.651L102.356 127.304L88.511 131.113L84.1865 132.303C83.4763 132.498 82.8058 131.885 82.9374 131.16L83.7921 126.453L85.4271 120.175C85.4512 120.083 85.4619 119.987 85.4588 119.891L85.304 115.142C85.2761 114.285 84.253 113.858 83.6244 114.441L79.0232 118.711C78.9054 118.82 78.7631 118.9 78.6082 118.942L69.5843 121.425C69.373 121.483 69.1485 121.47 68.9452 121.388L59.8862 117.736C59.6965 117.66 59.5347 117.527 59.4228 117.356L55.6903 111.641C55.6543 111.586 55.6238 111.527 55.5993 111.466L52.0718 102.662C52.012 102.513 51.9891 102.351 52.0049 102.191Z" stroke="#85D7E5" stroke-width="4" stroke-linejoin="bevel"/>
</g>
<path d="M52.0049 102.191L52.8808 93.3434C52.8871 93.2796 52.8995 93.2167 52.9179 93.1553L55.9262 83.0975C55.9412 83.0474 55.9601 82.9985 55.9827 82.9514L61.1373 72.2109L66.3258 61.3996L71.3595 52.5078C71.6183 52.0506 72.1868 51.8717 72.6608 52.0982L79.733 55.477L92.2896 63.641L104.781 71.7625C104.824 71.7908 104.866 71.8225 104.904 71.8572L110.827 77.1824C110.898 77.247 110.96 77.3216 111.011 77.404L115.543 84.8084C115.592 84.8884 115.629 84.9748 115.654 85.0652L117.787 92.8196C117.813 92.913 117.825 93.0095 117.823 93.1063L117.649 101.207C117.643 101.49 117.517 101.757 117.303 101.942L106.839 110.997C106.644 111.165 106.391 111.252 106.133 111.239L95.1354 110.676C94.4546 110.641 93.9393 111.283 94.1201 111.94L95.4957 116.941C95.5514 117.143 95.6694 117.323 95.833 117.454L105.094 124.907C105.73 125.419 105.519 126.434 104.733 126.651L102.356 127.304L88.511 131.113L84.1865 132.303C83.4763 132.498 82.8058 131.885 82.9374 131.16L83.7921 126.453L85.4271 120.175C85.4512 120.083 85.4619 119.987 85.4588 119.891L85.304 115.142C85.2761 114.285 84.253 113.858 83.6244 114.441L79.0232 118.711C78.9054 118.82 78.7631 118.9 78.6082 118.942L69.5843 121.425C69.373 121.483 69.1485 121.47 68.9452 121.388L59.8862 117.736C59.6965 117.66 59.5347 117.527 59.4228 117.356L55.6903 111.641C55.6543 111.586 55.6238 111.527 55.5993 111.466L52.0718 102.662C52.012 102.513 51.9891 102.351 52.0049 102.191Z" fill="#007184" fill-opacity="0.16" stroke="#AEE4ED" stroke-width="4" stroke-linejoin="bevel"/>
<defs>
<filter id="filter0_f_5_101" x="0" y="0" width="169.823" height="184.341" filterUnits="userSpaceOnUse" color-interpolation-filters="sRGB">
<feFlood flood-opacity="0" result="BackgroundImageFix"/>
<feBlend mode="normal" in="SourceGraphic" in2="BackgroundImageFix" result="shape"/>
<feGaussianBlur stdDeviation="25" result="effect1_foregroundBlur_5_101"/>
</filter>
<filter id="filter1_f_5_101" x="25" y="25" width="119.823" height="134.341" filterUnits="userSpaceOnUse" color-interpolation-filters="sRGB">
<feFlood flood-opacity="0" result="BackgroundImageFix"/>
<feBlend mode="normal" in="SourceGraphic" in2="BackgroundImageFix" result="shape"/>
<feGaussianBlur stdDeviation="12.5" result="effect1_foregroundBlur_5_101"/>
</filter>
<filter id="filter2_f_5_101" x="35" y="35" width="99.8233" height="114.341" filterUnits="userSpaceOnUse" color-interpolation-filters="sRGB">
<feFlood flood-opacity="0" result="BackgroundImageFix"/>
<feBlend mode="normal" in="SourceGraphic" in2="BackgroundImageFix" result="shape"/>
<feGaussianBlur stdDeviation="7.5" result="effect1_foregroundBlur_5_101"/>
</filter>
<filter id="filter3_f_5_101" x="40" y="40" width="89.8233" height="104.341" filterUnits="userSpaceOnUse" color-interpolation-filters="sRGB">
<feFlood flood-opacity="0" result="BackgroundImageFix"/>
<feBlend mode="normal" in="SourceGraphic" in2="BackgroundImageFix" result="shape"/>
<feGaussianBlur stdDeviation="5" result="effect1_foregroundBlur_5_101"/>
</filter>
</defs>
</svg>
